<?xml version="1.0" standalone="no"?>
<!DOCTYPE svg PUBLIC "-//W3C//DTD SVG 20010904//EN"
 "http://www.w3.org/TR/2001/REC-SVG-20010904/DTD/svg10.dtd">
<svg version="1.0" xmlns="http://www.w3.org/2000/svg"
 width="596.000000pt" height="370.000000pt" viewBox="0 0 596.000000 370.000000"
 preserveAspectRatio="xMidYMid meet">

<g transform="translate(0.000000,370.000000) scale(0.100000,-0.100000)"
fill="#000000" stroke="none">
<path d="M972 2970 c-81 -17 -146 -72 -183 -155 -31 -71 -29 -132 30 -760 57
-599 59 -608 131 -646 50 -27 137 -26 181 4 70 46 72 55 128 672 28 308 51
587 51 621 0 108 -66 208 -163 249 -46 19 -123 26 -175 15z"/>
<path d="M3023 2970 c-57 -12 -91 -32 -135 -77 -46 -47 -67 -96 -74 -171 -3
-34 17 -286 50 -635 60 -630 59 -629 126 -674 25 -18 47 -23 92 -23 98 0 148
40 168 133 11 56 110 1116 110 1184 0 97 -74 211 -161 247 -47 20 -124 27
-176 16z"/>
<path d="M5058 2966 c-121 -33 -197 -136 -198 -269 0 -54 93 -1087 106 -1168
13 -88 75 -139 168 -139 72 0 118 25 146 81 29 55 137 1206 120 1281 -20 95
-79 172 -154 203 -49 21 -136 26 -188 11z"/>
<path d="M934 1041 c-77 -35 -114 -113 -93 -195 47 -186 370 -176 405 12 15
79 -38 167 -114 190 -59 18 -151 14 -198 -7z"/>
<path d="M2985 1041 c-89 -40 -125 -131 -89 -220 55 -132 289 -150 371 -28 59
88 26 204 -71 248 -55 25 -157 25 -211 0z"/>
<path d="M5045 1049 c-67 -25 -115 -92 -115 -159 0 -117 106 -193 244 -176
103 13 166 80 166 175 0 108 -62 162 -189 168 -42 1 -89 -2 -106 -8z"/>
</g>
</svg>
